<?xml version="1.0" standalone="no"?>
<svg xmlns:xlink="http://www.w3.org/1999/xlink" id="wave" style="transform:rotate(0deg); transition: 0.3s" viewBox="0 0 1440 270" version="1.1" xmlns="http://www.w3.org/2000/svg"><defs><linearGradient id="sw-gradient-0" x1="0" x2="0" y1="1" y2="0"><stop stop-color="rgba(243, 106, 62, 1)" offset="0%"/><stop stop-color="rgba(152, 7, 5, 1)" offset="100%"/></linearGradient></defs><path style="transform:translate(0, 0px); opacity:1" fill="url(#sw-gradient-0)" d="M0,162L80,153C160,144,320,126,480,121.5C640,117,800,126,960,144C1120,162,1280,189,1440,189C1600,189,1760,162,1920,139.5C2080,117,2240,99,2400,85.5C2560,72,2720,63,2880,72C3040,81,3200,108,3360,126C3520,144,3680,153,3840,153C4000,153,4160,144,4320,153C4480,162,4640,189,4800,171C4960,153,5120,90,5280,67.5C5440,45,5600,63,5760,67.5C5920,72,6080,63,6240,67.5C6400,72,6560,90,6720,94.5C6880,99,7040,90,7200,72C7360,54,7520,27,7680,18C7840,9,8000,18,8160,27C8320,36,8480,45,8640,63C8800,81,8960,108,9120,99C9280,90,9440,45,9600,22.5C9760,0,9920,0,10080,0C10240,0,10400,0,10560,27C10720,54,10880,108,11040,135C11200,162,11360,162,11440,162L11520,162L11520,270L11440,270C11360,270,11200,270,11040,270C10880,270,10720,270,10560,270C10400,270,10240,270,10080,270C9920,270,9760,270,9600,270C9440,270,9280,270,9120,270C8960,270,8800,270,8640,270C8480,270,8320,270,8160,270C8000,270,7840,270,7680,270C7520,270,7360,270,7200,270C7040,270,6880,270,6720,270C6560,270,6400,270,6240,270C6080,270,5920,270,5760,270C5600,270,5440,270,5280,270C5120,270,4960,270,4800,270C4640,270,4480,270,4320,270C4160,270,4000,270,3840,270C3680,270,3520,270,3360,270C3200,270,3040,270,2880,270C2720,270,2560,270,2400,270C2240,270,2080,270,1920,270C1760,270,1600,270,1440,270C1280,270,1120,270,960,270C800,270,640,270,480,270C320,270,160,270,80,270L0,270Z"/><defs><linearGradient id="sw-gradient-1" x1="0" x2="0" y1="1" y2="0"><stop stop-color="rgba(243, 106, 62, 1)" offset="0%"/><stop stop-color="rgba(255, 179, 11, 1)" offset="100%"/></linearGradient></defs><path style="transform:translate(0, 50px); opacity:0.9" fill="url(#sw-gradient-1)" d="M0,135L80,148.5C160,162,320,189,480,184.5C640,180,800,144,960,126C1120,108,1280,108,1440,99C1600,90,1760,72,1920,81C2080,90,2240,126,2400,144C2560,162,2720,162,2880,166.5C3040,171,3200,180,3360,193.5C3520,207,3680,225,3840,207C4000,189,4160,135,4320,99C4480,63,4640,45,4800,36C4960,27,5120,27,5280,45C5440,63,5600,99,5760,94.5C5920,90,6080,45,6240,45C6400,45,6560,90,6720,117C6880,144,7040,153,7200,157.5C7360,162,7520,162,7680,157.5C7840,153,8000,144,8160,130.5C8320,117,8480,99,8640,117C8800,135,8960,189,9120,180C9280,171,9440,99,9600,90C9760,81,9920,135,10080,153C10240,171,10400,153,10560,148.5C10720,144,10880,153,11040,153C11200,153,11360,144,11440,139.5L11520,135L11520,270L11440,270C11360,270,11200,270,11040,270C10880,270,10720,270,10560,270C10400,270,10240,270,10080,270C9920,270,9760,270,9600,270C9440,270,9280,270,9120,270C8960,270,8800,270,8640,270C8480,270,8320,270,8160,270C8000,270,7840,270,7680,270C7520,270,7360,270,7200,270C7040,270,6880,270,6720,270C6560,270,6400,270,6240,270C6080,270,5920,270,5760,270C5600,270,5440,270,5280,270C5120,270,4960,270,4800,270C4640,270,4480,270,4320,270C4160,270,4000,270,3840,270C3680,270,3520,270,3360,270C3200,270,3040,270,2880,270C2720,270,2560,270,2400,270C2240,270,2080,270,1920,270C1760,270,1600,270,1440,270C1280,270,1120,270,960,270C800,270,640,270,480,270C320,270,160,270,80,270L0,270Z"/></svg>